<svg xmlns="http://www.w3.org/2000/svg" viewBox="0 0 143.57 61.46"><defs><style>.cls-1{isolation:isolate;}.cls-2,.cls-3{fill:none;stroke:#231f20;stroke-width:0.5px;}.cls-2{stroke-miterlimit:10;}.cls-3{font-size:23.7px;font-family:Bastion;}.cls-4{fill:#2f2e3d;}.cls-5,.cls-6,.cls-7,.cls-9{fill-rule:evenodd;}.cls-6{fill:#424143;}.cls-7,.cls-9{fill:#231f20;}.cls-7{opacity:0.4;}.cls-8{fill:#111;mix-blend-mode:multiply;}</style></defs><title>Logo 1111</title><g class="cls-1"><g id="Layer_2" data-name="Layer 2"><g id="Layer_1-2" data-name="Layer 1"><path class="cls-2" d="M40.81,56.24H49a1.78,1.78,0,0,0,1.78-1.78V12.86a1.78,1.78,0,0,0-2.24-1.73,80.79,80.79,0,0,1-16,2.12A1.79,1.79,0,0,0,30.84,15L30.34,18a1.65,1.65,0,0,0,0,.7,1.57,1.57,0,0,0,.18.44,1.76,1.76,0,0,0,1.94.79l4.78-1.11A1.78,1.78,0,0,1,39,20.56v33.9A1.79,1.79,0,0,0,40.81,56.24Z"/><path class="cls-2" d="M65.87,56.24h8.22a1.79,1.79,0,0,0,1.79-1.78V12.86a1.79,1.79,0,0,0-2.25-1.73,80.67,80.67,0,0,1-16,2.12A1.79,1.79,0,0,0,55.9,15L55.4,18a1.65,1.65,0,0,0,0,.7,1.57,1.57,0,0,0,.18.44,1.76,1.76,0,0,0,1.94.79l4.79-1.11a1.79,1.79,0,0,1,1.76,1.78v33.9A1.78,1.78,0,0,0,65.87,56.24Z"/><path class="cls-2" d="M90.59,56.24h8.22a1.79,1.79,0,0,0,1.79-1.78V12.86a1.79,1.79,0,0,0-2.25-1.73,80.79,80.79,0,0,1-16,2.12A1.79,1.79,0,0,0,80.62,15L80.12,18a1.65,1.65,0,0,0,0,.7,1.57,1.57,0,0,0,.18.44,1.76,1.76,0,0,0,1.94.79l4.79-1.11a1.79,1.79,0,0,1,1.76,1.78v33.9A1.78,1.78,0,0,0,90.59,56.24Z"/><text class="cls-3" transform="translate(107.11 55.88)">.Tn</text><path class="cls-2" d="M13.44,55.88H22a1.79,1.79,0,0,0,1.79-1.79V14.65a1.78,1.78,0,0,0-1.73-1.79A77.07,77.07,0,0,1,6,10.79a1.79,1.79,0,0,0-2.27,1.72v4a1.79,1.79,0,0,0,1.79,1.79H9.92A1.79,1.79,0,0,1,11.71,20l-.06,34.05A1.79,1.79,0,0,0,13.44,55.88Z"/><path class="cls-4" d="M19,21.72c-.12,0-.21,0-.25-.13-.17-.34.43-1.41,1.37-2.18a1.55,1.55,0,0,1,1.51-.34c.34.13.76.49.89,1.46a.81.81,0,0,1-.19.7,1.31,1.31,0,0,1-1.05.3,7.33,7.33,0,0,0-1.87.13A1.83,1.83,0,0,1,19,21.72Zm2.21-2.55a1.63,1.63,0,0,0-1,.38,3.13,3.13,0,0,0-1.33,2c0,.06.21,0,.46,0a7.61,7.61,0,0,1,1.92-.14,1.11,1.11,0,0,0,.91-.23.71.71,0,0,0,.14-.56,1.48,1.48,0,0,0-.78-1.31A.84.84,0,0,0,21.17,19.17Z"/><path class="cls-4" d="M22.34,20.84a1.12,1.12,0,0,0-.2-.46.93.93,0,0,0-.48-.28,2.24,2.24,0,0,0-1.2.1,3.75,3.75,0,0,0-1,.48,1.57,1.57,0,0,0-.66.78,1.4,1.4,0,0,1,.53-.9A3.07,3.07,0,0,1,20.37,20a2.33,2.33,0,0,1,1.2-.1,1.08,1.08,0,0,1,.51.26.83.83,0,0,1,.25.48A1.48,1.48,0,0,1,22.34,20.84Z"/><path class="cls-4" d="M12.27,19.17c.17-2.6,3.18-.72,4.05-1.45.11-.09-.06.59-.22.66-.68.33-1.49-.09-2.49-.2A1.23,1.23,0,0,0,12.27,19.17Z"/><path class="cls-4" d="M22.88,17.53c-1.38-2-2.92,0-4.18.42-.14,0,0,.65.11.64C20,18.38,20,17.72,21,17.24A1.63,1.63,0,0,1,22.88,17.53Z"/><path class="cls-4" d="M17.39,23.67a1.52,1.52,0,0,0,.36.12,1.44,1.44,0,0,0,.46.05,1.38,1.38,0,0,0,.45-.08A2.32,2.32,0,0,0,19,23.6a.92.92,0,0,1-.79.47A1,1,0,0,1,17.39,23.67Z"/><path class="cls-4" d="M20.82,20.05a.42.42,0,0,0-.23.07.15.15,0,0,1,.11.12c0,.08-.09.14-.21.14h-.1a.54.54,0,0,0,0,.19.48.48,0,0,0,.46.5.48.48,0,0,0,.46-.5A.49.49,0,0,0,20.82,20.05Z"/><path class="cls-4" d="M17,21.62a2.09,2.09,0,0,0-1-.36,3.64,3.64,0,0,0-1.23.1c-.29.06-.58.13-.86.21a1,1,0,0,1-.41,0,.43.43,0,0,1-.24-.2.5.5,0,0,0,.27,0l.17-.06.07,0h0a4,4,0,0,1,1.06-.34,2.65,2.65,0,0,1,1.22,0A1.55,1.55,0,0,1,17,21.62Z"/><path class="cls-4" d="M14.5,21.82a1.86,1.86,0,0,1,.92-.24,3,3,0,0,1,.52.06,1.65,1.65,0,0,1,.42.16c-.31,0-.62,0-.93,0l-.51,0C14.78,21.8,14.64,21.82,14.5,21.82Z"/><path class="cls-5" d="M18.29,25.19a2.72,2.72,0,0,1,3.19-.73l.24.09a10.83,10.83,0,0,0,5.19,1.12l.07.11a6.71,6.71,0,0,1-.88.81,21.51,21.51,0,0,1-2.39,1.32,4.83,4.83,0,0,1-3.41.17,3.1,3.1,0,0,1-2-1.5,3.4,3.4,0,0,1-2.62,1.64,5.07,5.07,0,0,1-2.9-.34A10.35,10.35,0,0,1,10,26.13c-.12-.11-.22-.24-.37-.41l1.32-.09a9.62,9.62,0,0,0,3.49-.89,4.47,4.47,0,0,1,2-.49A2.27,2.27,0,0,1,18.29,25.19Zm7.88.88A11.28,11.28,0,0,1,21.71,25a2.24,2.24,0,0,0-.88-.27,4.53,4.53,0,0,0-1.52.16,1.09,1.09,0,0,0-.57,1.69,1.28,1.28,0,0,0,.44.53,6.56,6.56,0,0,0,1.59.74C22.89,28.3,24.55,27.23,26.17,26.07ZM10.44,26s0,.06,0,.1l.9.57a6.1,6.1,0,0,0,3.91,1.21,3.4,3.4,0,0,0,2.46-1.1,1.21,1.21,0,0,0-.7-2.09A2.91,2.91,0,0,0,15,24.9,10.8,10.8,0,0,1,10.44,26Z"/><path class="cls-6" d="M26.17,26.07c-1.62,1.16-3.28,2.23-5.4,1.74a6.56,6.56,0,0,1-1.59-.74,1.28,1.28,0,0,1-.44-.53,1.09,1.09,0,0,1,.57-1.69,4.53,4.53,0,0,1,1.52-.16,2.24,2.24,0,0,1,.88.27A11.28,11.28,0,0,0,26.17,26.07Z"/><path class="cls-6" d="M10.44,26A10.8,10.8,0,0,0,15,24.9,2.91,2.91,0,0,1,17,24.72a1.21,1.21,0,0,1,.7,2.09,3.4,3.4,0,0,1-2.46,1.1,6.1,6.1,0,0,1-3.91-1.21l-.9-.57S10.43,26.06,10.44,26Z"/><path class="cls-7" d="M25.36,26.14a14.8,14.8,0,0,1-3.2.84,3.11,3.11,0,0,1-2.6-.78,1.77,1.77,0,0,1-.45-1.26,1.09,1.09,0,0,0-.37,1.6,1.28,1.28,0,0,0,.44.53,6.56,6.56,0,0,0,1.59.74c2.12.49,3.78-.58,5.4-1.74l-.5,0Z"/><path class="cls-7" d="M17,24.73c0,.12,0,.24.07.36a1.64,1.64,0,0,1-1,1.65,5.07,5.07,0,0,1-3.06.12c-.88-.2-1.72-.53-2.58-.8v.07l.9.57a6.1,6.1,0,0,0,3.91,1.21,3.4,3.4,0,0,0,2.46-1.1A1.21,1.21,0,0,0,17,24.73Z"/><path class="cls-8" d="M15.43,0c3.95-.1,8,.53,8.14,2.25.22,2,.53,4.84.61,6.86.06,1.36,3.15.06,6.29,1.75,2.19,1.18-5.18,3.73-15,3.35-9.87.38-17.23-2.17-15-3.35,3.13-1.69,6.22-.39,6.28-1.75.09-2,.39-4.86.61-6.86C7.47.54,11.48-.09,15.43,0Z"/><path class="cls-9" d="M11.46,19V23H24.09V19Zm3.43,3.57c-1,0-1.86-.6-1.86-1.35s.83-1.35,1.86-1.35,1.86.61,1.86,1.35S15.91,22.56,14.89,22.56Zm5.78,0c-1,0-1.86-.6-1.86-1.35s.83-1.35,1.86-1.35,1.86.61,1.86,1.35S21.69,22.56,20.67,22.56Z"/></g></g></g></svg>